<?xml version="1.0" encoding="UTF-8" standalone="no"?>
<svg
   xmlns:dc="http://purl.org/dc/elements/1.1/"
   xmlns:cc="http://creativecommons.org/ns#"
   xmlns:rdf="http://www.w3.org/1999/02/22-rdf-syntax-ns#"
   xmlns:svg="http://www.w3.org/2000/svg"
   xmlns="http://www.w3.org/2000/svg"
   xmlns:sodipodi="http://sodipodi.sourceforge.net/DTD/sodipodi-0.dtd"
   xmlns:inkscape="http://www.inkscape.org/namespaces/inkscape"
   width="48"
   height="48"
   viewBox="0 0 48 48"
   id="svg3422"
   version="1.1"
   inkscape:version="0.91 r13725"
   sodipodi:docname="ic_pin_drop_48px.svg">
  <metadata
     id="metadata3432">
    <rdf:RDF>
      <cc:Work
         rdf:about="">
        <dc:format>image/svg+xml</dc:format>
        <dc:type
           rdf:resource="http://purl.org/dc/dcmitype/StillImage" />
        <dc:title></dc:title>
      </cc:Work>
    </rdf:RDF>
  </metadata>
  <defs
     id="defs3430" />
  <sodipodi:namedview
     pagecolor="#ffffff"
     bordercolor="#666666"
     borderopacity="1"
     objecttolerance="10"
     gridtolerance="10"
     guidetolerance="10"
     inkscape:pageopacity="0"
     inkscape:pageshadow="2"
     inkscape:window-width="1395"
     inkscape:window-height="855"
     id="namedview3428"
     showgrid="false"
     inkscape:zoom="5.0364583"
     inkscape:cx="58.173494"
     inkscape:cy="19.49211"
     inkscape:window-x="45"
     inkscape:window-y="0"
     inkscape:window-maximized="1"
     inkscape:current-layer="svg3422" />
  <circle
     style="fill:#1b5e20;fill-opacity:1;fill-rule:evenodd;stroke:none;stroke-width:1px;stroke-linecap:butt;stroke-linejoin:miter;stroke-opacity:1"
     id="path3434"
     cx="24"
     cy="24"
     r="24" />
  <path
     d="M0 0h48v48h-48z"
     fill="none"
     id="path3426" />
  <path
     d="M 34.285714,17 C 34.285714,11.317143 29.682857,6.7142857 24,6.7142857 18.317143,6.7142857 13.714286,11.317143 13.714286,17 13.714286,24.714286 24,35.857143 24,35.857143 24,35.857143 34.285714,24.714286 34.285714,17 Z m -13.714285,0 c 0,-1.894286 1.534285,-3.428571 3.428571,-3.428571 1.894286,0 3.428571,1.534285 3.428571,3.428571 0,1.894286 -1.534285,3.428571 -3.428571,3.428571 -1.894286,0 -3.428571,-1.534285 -3.428571,-3.428571 z M 12,37.571429 12,41 l 24,0 0,-3.428571 -24,0 z"
     id="path3424"
     inkscape:connector-curvature="0"
     style="fill:#ffc107;fill-opacity:1" />
</svg>
